<?xml version="1.0" encoding="UTF-8"?>
<svg id="b" xmlns="http://www.w3.org/2000/svg" version="1.1" xmlns:xlink="http://www.w3.org/1999/xlink" viewBox="0 0 1798.7 242">
  <!-- Generator: Adobe Illustrator 30.3.0, SVG Export Plug-In . SVG Version: 2.1.3 Build 157)  -->
  <defs>
    <style>
      .st0 {
        opacity: .6;
      }

      .st1 {
        fill: #5ef6ff;
      }

      .st2 {
        fill: #fdd700;
      }

      .st3 {
        fill: #ff4757;
      }

      .st4 {
        fill: gold;
        isolation: isolate;
        opacity: 0;
      }

      .st5 {
        fill: #6dc8c0;
      }

      .st6 {
        fill: url(#linear-gradient);
      }

      .st7 {
        opacity: .5;
      }

      .st8 {
        fill: #f3f3f3;
      }
    </style>
    <linearGradient id="linear-gradient" x1="317.7" y1="196.8" x2="338.2" y2="176.3" gradientTransform="translate(0 242) scale(1 -1)" gradientUnits="userSpaceOnUse">
      <stop offset="0" stop-color="#ff4757" stop-opacity=".4"/>
      <stop offset="1" stop-color="#5ef5ff" stop-opacity=".4"/>
    </linearGradient>
  </defs>
  <g id="c">
    <g>
      <g>
        <path class="st5" d="M224.8,147.8v-63.4h51.8c2.1,0,4,.5,5.8,1.5s3.2,2.4,4.2,4.1c1,1.7,1.5,3.7,1.5,5.8v40.5c0,2.1-.5,4-1.5,5.8-1,1.7-2.4,3.1-4.2,4.1-1.8,1-3.7,1.5-5.8,1.5h-51.8ZM236.5,138.3h40c.6,0,1.2-.2,1.6-.7.4-.4.6-1,.6-1.5v-40c0-.6-.2-1.1-.6-1.5-.4-.4-.9-.7-1.6-.7h-40c-.6,0-1.1.2-1.5.7-.4.4-.6,1-.6,1.5v40c0,.6.2,1.1.6,1.5.4.4.9.7,1.5.7h0Z"/>
        <path class="st5" d="M303.1,147.8v-63.4h58.1v9.5h-48.5v17.3h39v9.7h-39v17.3h48.5v9.5h-58.1Z"/>
        <path class="st5" d="M375.3,147.8v-63.4h58.1v9.5h-48.5v17.3h39v9.7h-39v17.3h48.5v9.5h-58.1Z"/>
        <path class="st5" d="M447.4,147.8v-63.3h51.8c2.1,0,4,.5,5.8,1.6,1.8,1.1,3.2,2.4,4.2,4.2,1,1.7,1.5,3.6,1.5,5.7v17.8c0,2.1-.5,4-1.5,5.8-1,1.7-2.4,3.1-4.2,4.1-1.8,1-3.7,1.5-5.8,1.5h-42.3v22.6h-9.5ZM459.1,115.6h39.9c.6,0,1.2-.2,1.6-.6.4-.4.6-.9.6-1.5v-17.2c0-.6-.2-1.1-.6-1.5-.4-.4-.9-.7-1.6-.7h-39.9c-.6,0-1.1.2-1.5.7-.4.4-.7,1-.7,1.5v17.2c0,.6.2,1.1.7,1.5.4.4,1,.6,1.5.6Z"/>
        <path class="st2" d="M563.3,147.8c-2.1,0-4-.5-5.7-1.5-1.8-1-3.2-2.4-4.2-4.1-1-1.7-1.5-3.7-1.5-5.8v-3.7h9.5v3.4c0,.6.2,1.1.7,1.5.4.4,1,.7,1.5.7h40c.6,0,1.1-.2,1.5-.7.4-.4.6-1,.6-1.5v-13c0-.6-.2-1.2-.6-1.5-.4-.4-.9-.6-1.5-.6h-40.2c-2.1,0-4-.5-5.7-1.6-1.8-1.1-3.2-2.4-4.2-4.2-1-1.7-1.5-3.7-1.5-5.8v-13.6c0-2.1.5-4,1.5-5.8,1-1.7,2.4-3.1,4.2-4.1,1.8-1,3.7-1.5,5.7-1.5h40.5c2.1,0,4,.5,5.7,1.5,1.8,1,3.2,2.4,4.2,4.1,1,1.7,1.5,3.7,1.5,5.8v3.7h-9.6v-3.4c0-.6-.2-1.1-.6-1.5-.4-.4-.9-.7-1.5-.7h-40c-.6,0-1.1.2-1.5.7-.4.4-.7,1-.7,1.5v13c0,.6.2,1.2.7,1.5.4.4,1,.6,1.5.6h40.2c2.1,0,4,.5,5.7,1.6,1.8,1.1,3.2,2.4,4.2,4.2,1,1.7,1.5,3.7,1.5,5.8v13.6c0,2.1-.5,4-1.5,5.8-1,1.7-2.4,3.1-4.2,4.1-1.8,1-3.7,1.5-5.7,1.5h-40.5Z"/>
        <path class="st2" d="M641,147.8c-2.1,0-4-.5-5.8-1.5-1.7-1-3.1-2.4-4.1-4.1-1-1.7-1.5-3.7-1.5-5.8v-40.5c0-2.1.5-4,1.5-5.8,1-1.7,2.4-3.1,4.1-4.1,1.7-1,3.7-1.5,5.8-1.5h51.7v9.5h-50.4c-.9,0-1.7.3-2.3.9-.6.6-.9,1.4-.9,2.3v37.8c0,.9.3,1.7.9,2.3s1.4.9,2.3.9h50.4v9.5h-51.7Z"/>
        <path class="st2" d="M706.9,95.9c0-2.1.5-4,1.5-5.8,1-1.7,2.4-3.1,4.1-4.1,1.7-1,3.7-1.5,5.8-1.5h40.4c2.1,0,4,.5,5.8,1.5s3.2,2.4,4.2,4.1c1,1.7,1.5,3.7,1.5,5.8v51.9h-9.6v-22.2h-44.3v22.2h-9.5v-51.9h0ZM760.7,116.2v-20c0-.6-.2-1.1-.6-1.5-.4-.4-.9-.7-1.6-.7h-39.9c-.6,0-1.1.2-1.5.7-.4.4-.7,1-.7,1.5v20h44.3Z"/>
        <path class="st2" d="M785.1,147.8v-63.4h11.4l42.4,50.5v-50.5h9.6v63.4h-11.4l-42.5-50.6v50.6h-9.5,0Z"/>
        <path class="st8" d="M893.5,147.8v-63.3h51.8c2.1,0,4,.5,5.8,1.6,1.8,1.1,3.2,2.4,4.2,4.2,1,1.7,1.5,3.6,1.5,5.7v17.8c0,2.1-.5,4-1.5,5.8-1,1.7-2.4,3.1-4.2,4.1-1.8,1-3.7,1.5-5.8,1.5h-42.3v22.6h-9.5ZM905.2,115.6h39.9c.6,0,1.2-.2,1.6-.6.4-.4.6-.9.6-1.5v-17.2c0-.6-.2-1.1-.6-1.5-.4-.4-.9-.7-1.6-.7h-39.9c-.6,0-1.1.2-1.5.7s-.7,1-.7,1.5v17.2c0,.6.2,1.1.7,1.5.4.4,1,.6,1.5.6Z"/>
        <path class="st8" d="M968,147.8v-63.3h51.8c2.1,0,4,.5,5.8,1.6,1.8,1.1,3.2,2.4,4.2,4.2,1,1.7,1.5,3.6,1.5,5.7v17.8c0,2.1-.5,4-1.5,5.8-1,1.7-2.4,3.1-4.2,4.1-1.8,1-3.7,1.5-5.8,1.5h-42.3v22.6h-9.5,0ZM979.7,115.6h39.9c.6,0,1.2-.2,1.6-.6.4-.4.6-.9.6-1.5v-17.2c0-.6-.2-1.1-.6-1.5-.4-.4-.9-.7-1.6-.7h-39.9c-.6,0-1.1.2-1.5.7s-.7,1-.7,1.5v17.2c0,.6.2,1.1.7,1.5.4.4,1,.6,1.5.6ZM1019.9,147.8l-19.8-23.7h12.4l18.5,21.9v1.8h-11.1,0Z"/>
        <path class="st8" d="M1056.7,147.8c-2.1,0-4-.5-5.8-1.5-1.7-1-3.1-2.4-4.1-4.1-1-1.7-1.5-3.7-1.5-5.8v-40.5c0-2.1.5-4,1.5-5.8,1-1.7,2.4-3.1,4.1-4.1s3.7-1.5,5.8-1.5h40.5c2.1,0,4,.5,5.7,1.5,1.8,1,3.2,2.4,4.2,4.1,1,1.7,1.5,3.7,1.5,5.8v40.5c0,2.1-.5,4-1.5,5.8-1,1.7-2.4,3.1-4.2,4.1-1.8,1-3.7,1.5-5.7,1.5h-40.5ZM1057,138.3h39.9c.6,0,1.2-.2,1.6-.7.4-.4.6-1,.6-1.5v-40c0-.6-.2-1.1-.6-1.5-.4-.4-.9-.7-1.6-.7h-39.9c-.6,0-1.1.2-1.5.7-.4.4-.7,1-.7,1.5v40c0,.6.2,1.1.7,1.5.4.4,1,.7,1.5.7Z"/>
        <path class="st8" d="M1146.9,147.8v-53.9h-26.9v-9.5h63.4v9.5h-26.8v53.9h-9.6,0Z"/>
        <path class="st8" d="M1206,147.8c-2.1,0-4-.5-5.8-1.5-1.7-1-3.1-2.4-4.1-4.1-1-1.7-1.5-3.7-1.5-5.8v-40.5c0-2.1.5-4,1.5-5.8,1-1.7,2.4-3.1,4.1-4.1s3.7-1.5,5.8-1.5h40.5c2.1,0,4,.5,5.7,1.5,1.8,1,3.2,2.4,4.2,4.1,1,1.7,1.5,3.7,1.5,5.8v40.5c0,2.1-.5,4-1.5,5.8-1,1.7-2.4,3.1-4.2,4.1-1.8,1-3.7,1.5-5.7,1.5h-40.5ZM1206.3,138.3h39.9c.6,0,1.2-.2,1.6-.7.4-.4.6-1,.6-1.5v-40c0-.6-.2-1.1-.6-1.5-.4-.4-.9-.7-1.6-.7h-39.9c-.6,0-1.1.2-1.5.7-.4.4-.7,1-.7,1.5v40c0,.6.2,1.1.7,1.5.4.4,1,.7,1.5.7Z"/>
        <path class="st8" d="M1283.9,147.8c-2.1,0-4-.5-5.8-1.5-1.7-1-3.1-2.4-4.1-4.1-1-1.7-1.5-3.7-1.5-5.8v-40.5c0-2.1.5-4,1.5-5.8,1-1.7,2.4-3.1,4.1-4.1s3.7-1.5,5.8-1.5h51.7v9.5h-50.4c-.9,0-1.7.3-2.3.9-.6.6-.9,1.4-.9,2.3v37.8c0,.9.3,1.7.9,2.3.6.6,1.4.9,2.3.9h50.4v9.5h-51.7Z"/>
        <path class="st8" d="M1360.9,147.8c-2.1,0-4-.5-5.8-1.5-1.7-1-3.1-2.4-4.1-4.1-1-1.7-1.5-3.7-1.5-5.8v-40.5c0-2.1.5-4,1.5-5.8,1-1.7,2.4-3.1,4.1-4.1s3.7-1.5,5.8-1.5h40.5c2.1,0,4,.5,5.7,1.5,1.8,1,3.2,2.4,4.2,4.1,1,1.7,1.5,3.7,1.5,5.8v40.5c0,2.1-.5,4-1.5,5.8-1,1.7-2.4,3.1-4.2,4.1-1.8,1-3.7,1.5-5.7,1.5h-40.5ZM1361.2,138.3h39.9c.6,0,1.2-.2,1.6-.7.4-.4.6-1,.6-1.5v-40c0-.6-.2-1.1-.6-1.5-.4-.4-.9-.7-1.6-.7h-39.9c-.6,0-1.1.2-1.5.7-.4.4-.7,1-.7,1.5v40c0,.6.2,1.1.7,1.5.4.4,1,.7,1.5.7Z"/>
        <path class="st8" d="M1427.4,147.8v-63.4h9.5v53.9h53.9v9.5h-63.4Z"/>
      </g>
      <g class="st7">
        <path class="st3" d="M222.9,57.5l.4.2c-.2.3-.4.7-.6,1s-.5.7-.8,1-.6.6-.9.8c0,0,0-.1-.2-.2s-.1-.1-.2-.2c.3-.2.6-.4.9-.7.3-.3.6-.6.8-.9s.4-.7.6-1h0ZM220.7,57.4h4.6v.5h-4.6v-.5ZM221.1,52.2h9.9v1.9h-.6v-1.5h-8.8v1.5h-.5v-1.9h0ZM221.1,55.4h3.9v.5h-3.9v-.5ZM221.7,51h8.7v.5h-8.7v-.5ZM221.9,56.5l.3-.4c.3,0,.6.2.9.3s.6.2.9.3.5.2.7.3l-.3.4c-.2-.1-.4-.2-.7-.4s-.5-.2-.8-.4c-.3-.1-.6-.2-.9-.3h0ZM223.1,57.6h.5v3.1c0,.2,0,.3,0,.4s-.1.1-.2.2c-.1,0-.3,0-.5,0-.2,0-.5,0-.8,0,0,0,0-.1,0-.2s0-.2-.1-.2c.3,0,.5,0,.7,0s.3,0,.4,0c0,0,.1,0,.1,0,0,0,0,0,0-.1v-3.1h0ZM222.2,54.4h2.8v.4h-2.8v-.4ZM222.3,53.3h2.7v.4h-2.7v-.4ZM224.9,55.4h.2s.4.2.4.2c-.3.3-.6.5-1,.8s-.8.4-1.1.6c0,0,0,0-.1-.1,0,0-.1,0-.2-.1.3-.1.6-.3,1-.6.3-.2.6-.4.8-.7h0c0,0,0,0,0,0ZM225.2,57.4h.2s.3.1.3.1c-.1.3-.3.7-.5,1s-.3.6-.5.9l-.4-.2c.1-.2.3-.5.4-.8.2-.3.3-.6.4-.9h0ZM228,58.2h.5c0,.4-.1.8-.3,1.2-.1.3-.3.6-.5.9s-.5.5-.9.7-.8.3-1.3.5c0,0,0-.1-.1-.2,0,0-.1-.2-.2-.2.5-.1.9-.2,1.3-.4.3-.2.6-.4.8-.6.2-.2.4-.5.5-.8.1-.3.2-.6.2-1h0ZM227.4,54.9h.5c-.2.4-.5.8-.8,1.2s-.8.7-1.2,1c0,0,0-.1-.2-.2s-.1-.1-.2-.2c.4-.3.8-.6,1.2-.9s.6-.6.8-.9ZM229.8,55.8h.5c-.2.6-.6,1-1,1.4-.5.4-1,.7-1.6.9s-1.2.4-1.8.6c0,0,0-.1-.1-.2,0,0-.1-.2-.2-.2.6-.1,1.2-.3,1.8-.5s1.1-.5,1.5-.8c.4-.3.8-.7,1-1.1h0ZM225.7,51.2h.6v3.9h-.6v-3.9ZM225.9,58.9h4.4v.5h-4.4v-.5ZM226.9,56c.3.4.6.7,1.1,1s1,.5,1.5.7,1.2.3,1.8.4c0,0-.1.1-.2.2s-.1.2-.1.2c-.6-.1-1.3-.3-1.8-.5-.6-.2-1.1-.5-1.6-.8s-.8-.7-1.1-1.1h.4ZM227.2,55.6h3.9v.5h-4.3l.4-.5ZM227,53.3h2.7v.4h-2.7v-.4h0ZM227,54.4h2.9v.4h-2.9v-.4ZM230.1,58.9h.5c0,.1,0,.2,0,.3,0,.6-.2,1.1-.2,1.4,0,.3-.2.5-.3.6,0,0-.2.1-.3.1,0,0-.2,0-.3,0-.1,0-.3,0-.5,0-.2,0-.5,0-.7,0,0,0,0-.1,0-.2,0,0,0-.2,0-.2.3,0,.5,0,.7,0s.4,0,.5,0,.2,0,.2,0,.1,0,.1,0c0,0,.2-.3.2-.5,0-.3.1-.7.2-1.3h0c0,0,0,0,0,0Z"/>
        <path class="st3" d="M238.4,55.9h.5c0,.6,0,1.2,0,1.8,0,.6-.2,1.3-.3,1.9s-.4,1.2-.7,1.7c0,0,0,0-.1-.1s0,0-.1-.1c0,0,0,0-.1,0,.3-.5.5-1,.7-1.6s.2-1.2.3-1.8,0-1.2,0-1.7h0ZM237.6,54.4h5.2v.5h-5.2v-.5ZM238.1,52.1h4.4v.5h-4.4v-.5ZM238.8,57.4c.2.6.4,1.1.7,1.6s.6.7,1,.9c.4.2.9.4,1.4.5s1.2.1,1.9.1h1.3c.3,0,.7,0,1,0s.7,0,1.1,0h1.4s0,0-.1.2c0,0,0,.1,0,.2s0,.1,0,.2h-4.5c-.8,0-1.5,0-2.1-.2-.6-.1-1.1-.3-1.5-.5s-.8-.6-1.1-1.1c-.3-.5-.5-1-.7-1.7l.4-.2h0ZM240.1,50.5h.6v4.2h-.6v-4.2ZM240.2,54.8h.5v5.4h-.5v-5.4ZM240.4,56.8h2.2v.5h-2.2v-.5ZM242,58.7c.4-.2.9-.5,1.5-.8.6-.3,1.2-.7,1.8-1l.2.5c-.6.3-1.1.6-1.7,1-.6.3-1.1.6-1.5.9l-.3-.5h0ZM243.1,52.7h5.4v.5h-4.9v5.1h-.5s0-5.6,0-5.6ZM247.7,54.1h.5c-.2,1-.6,1.8-.9,2.5s-.8,1.4-1.3,2-1.1,1-1.6,1.4c0,0-.1-.1-.2-.2,0,0-.1-.2-.2-.2.6-.3,1.1-.7,1.6-1.3s.9-1.2,1.3-1.9c.4-.7.7-1.5.9-2.2h0ZM245.3,50.5h.6c0,1.1,0,2,0,2.9,0,.9.1,1.7.2,2.4s.2,1.3.4,1.8.3.9.5,1.2c.2.3.4.4.7.4s.2-.2.3-.5.1-.8.1-1.5c0,0,.1.1.2.2s.2,0,.2.1c0,.6,0,1-.1,1.3,0,.3-.2.6-.3.7-.1.1-.3.2-.5.2-.3,0-.6-.2-.9-.5-.3-.3-.5-.7-.7-1.3-.2-.6-.3-1.2-.5-2-.1-.8-.2-1.6-.3-2.6,0-.9-.1-1.9-.1-3h0ZM246.5,50.8l.4-.2c.2.2.5.5.7.7.2.3.4.5.5.7l-.4.3c-.1-.2-.3-.5-.5-.7-.2-.3-.5-.5-.7-.8h0Z"/>
        <path class="st3" d="M258.2,55.6h.6c0,.7-.1,1.3-.3,1.9s-.3,1.1-.6,1.6-.6.9-1.1,1.3-1.1.7-1.8.9c0,0,0,0,0-.2s0-.1-.1-.2c0,0,0-.1-.1-.1.7-.2,1.3-.5,1.7-.8.5-.3.8-.7,1-1.2.2-.5.4-1,.5-1.5s.2-1.1.3-1.8h0ZM254.8,55.2h10.6v.6h-10.6v-.6ZM255.9,51.3l.5-.2c.2.3.4.6.6,1,.2.4.4.7.6,1.1.2.3.3.7.4.9l-.6.2c0-.3-.2-.6-.3-.9-.2-.3-.3-.7-.5-1.1s-.4-.7-.6-1h0ZM259.8,50.5h.6v4.9h-.6v-4.9ZM261.3,55.5h.6v4.8c0,.2,0,.3.1.4,0,0,.2,0,.5,0h1.9c.2,0,.3,0,.4-.2,0-.1.1-.3.2-.6,0-.3,0-.7,0-1.3,0,0,.1,0,.2,0s.1,0,.2,0,.1,0,.2,0c0,.6,0,1.1-.1,1.5,0,.3-.2.6-.3.7s-.4.2-.7.2h-1.9c-.3,0-.5,0-.7,0s-.3-.2-.4-.3-.1-.4-.1-.6v-4.8h0ZM263.8,50.9l.6.2c-.2.3-.3.7-.5,1.1-.2.4-.4.7-.6,1.1-.2.4-.4.7-.6.9l-.5-.2c.2-.3.4-.6.6-1,.2-.4.4-.7.6-1.1s.3-.7.5-1h0Z"/>
        <path class="st3" d="M271.9,57.2h10.5v.6h-10.5v-.6ZM272.2,52.5h10v2.5h-.6v-2h-8.9v2h-.6v-2.5h0ZM273,50.9l.5-.2c.2.3.5.6.7.9.2.3.4.6.5.8l-.5.3c-.1-.2-.3-.5-.5-.8s-.4-.6-.7-.9h0ZM273.8,54.5h6.2v.5h-6.2v-.5ZM276.8,56.3h.6v4.2c0,.2,0,.4-.1.5,0,.1-.2.2-.4.2-.2,0-.4,0-.8,0s-.8,0-1.4,0c0,0,0-.2-.1-.3,0-.1-.1-.2-.2-.3.3,0,.6,0,.9,0s.5,0,.7,0,.3,0,.4,0c.1,0,.2,0,.2,0s0,0,0-.2v-4.2h0ZM276.1,50.6l.5-.2c.2.3.4.6.6,1,.2.4.3.7.4.9l-.5.2c0-.3-.2-.6-.4-.9s-.4-.7-.6-1h0ZM279.9,54.5h.3s.4.3.4.3c-.3.3-.6.5-.9.8s-.7.5-1.1.7c-.4.2-.8.4-1.2.5,0,0-.1-.1-.2-.2,0,0-.1-.1-.2-.2.4-.1.7-.3,1.1-.5s.7-.4,1-.6c.3-.2.6-.4.8-.6h0c0-.1,0-.1,0-.1ZM280.9,50.5l.6.2c-.2.4-.5.7-.8,1.1s-.6.7-.8.9l-.4-.2c.2-.2.3-.4.5-.6s.4-.5.5-.7c.2-.2.3-.5.4-.7h0Z"/>
      </g>
      <g class="st0">
        <path class="st3" d="M41,50.7l1.2.7c-.4,1-1,2-1.8,3-.7,1-1.5,2-2.4,2.8s-1.7,1.6-2.6,2.2c-.1-.2-.3-.4-.5-.6-.2-.2-.4-.4-.6-.5.9-.5,1.7-1.2,2.6-2,.9-.8,1.7-1.7,2.4-2.7.7-1,1.3-1.9,1.7-2.9h0ZM34.5,50.3h13.5v1.4h-13.5v-1.4ZM35.5,35.1h29v5.7h-1.6v-4.3h-25.8v4.3h-1.6s0-5.7,0-5.7ZM35.8,44.3h11.3v1.3h-11.3v-1.3ZM37.4,31.5h25.3v1.4h-25.3v-1.4ZM37.9,47.7l.8-1c.8.2,1.6.5,2.5.8s1.7.6,2.5,1c.8.3,1.4.7,2,1l-.9,1.2c-.5-.3-1.2-.7-1.9-1-.8-.4-1.6-.7-2.5-1s-1.7-.6-2.5-.8ZM41.6,50.8h1.5v9.1c0,.5,0,.8-.2,1-.1.2-.3.4-.7.6-.3.1-.8.2-1.4.2-.6,0-1.4,0-2.3,0,0-.2,0-.4-.2-.7-.1-.3-.2-.5-.3-.7.8,0,1.5,0,2,0s.9,0,1.1,0c.2,0,.3,0,.4-.1,0,0,0-.2,0-.3v-9.1h0ZM38.8,41.3h8.1v1.3h-8.1v-1.3ZM39.2,38.3h7.7v1.2h-7.7v-1.2ZM46.6,44.3h.7c0,0,1,.6,1,.6-.8.8-1.8,1.5-2.9,2.3-1.1.7-2.2,1.3-3.2,1.8,0-.1-.2-.3-.4-.4-.2-.2-.3-.3-.5-.4.9-.4,1.9-1,2.8-1.6,1-.7,1.8-1.3,2.4-2v-.3h0ZM47.6,50.3h.6c0,0,1,.3,1,.3-.4,1-.9,1.9-1.3,2.9-.5,1-1,1.9-1.5,2.6l-1.2-.5c.4-.7.8-1.4,1.3-2.3.4-.9.8-1.8,1.2-2.6v-.3h0ZM55.7,52.6h1.5c-.1,1.3-.4,2.4-.8,3.4-.4,1-.9,1.9-1.6,2.6-.7.7-1.5,1.4-2.6,1.9-1.1.5-2.4,1-3.9,1.4,0-.2-.2-.4-.4-.6-.2-.2-.4-.4-.5-.6,1.5-.3,2.7-.7,3.7-1.2s1.8-1,2.4-1.7c.6-.7,1.1-1.4,1.4-2.3s.6-1.9.7-3ZM54.1,43l1.5.2c-.7,1-1.5,2.1-2.5,3.2-1,1-2.2,2-3.6,2.9-.1-.2-.3-.3-.5-.5-.2-.2-.4-.3-.6-.5,1.3-.8,2.4-1.6,3.4-2.6s1.7-1.9,2.2-2.8ZM61,45.4l1.4.3c-.7,1.4-1.7,2.7-3,3.7-1.3,1-2.9,1.9-4.6,2.6-1.7.7-3.5,1.3-5.3,1.7,0-.1-.2-.3-.4-.6-.2-.3-.3-.5-.5-.6,1.8-.4,3.5-.9,5.2-1.5,1.6-.6,3.1-1.4,4.4-2.3,1.3-.9,2.2-2,2.8-3.3h0ZM49.1,32.1h1.7v11.4h-1.7v-11.4ZM49.6,54.6h12.8v1.4h-12.8s0-1.4,0-1.4ZM52.7,46.1c.8,1.1,1.8,2.1,3.1,2.9,1.3.8,2.8,1.5,4.5,2.1,1.7.5,3.5,1,5.3,1.2-.1.1-.3.3-.5.6s-.3.5-.4.6c-1.9-.3-3.7-.8-5.4-1.4-1.7-.6-3.3-1.4-4.6-2.4-1.4-.9-2.5-2-3.3-3.2,0,0,1.3-.4,1.3-.4ZM53.4,45h11.4v1.3h-12.6l1.1-1.3ZM52.9,38.3h8v1.2h-8v-1.2ZM52.9,41.3h8.5v1.3h-8.5v-1.3ZM61.8,54.6h1.6c0,.4,0,.7,0,.8-.2,1.8-.5,3.2-.7,4s-.5,1.5-.9,1.8c-.2.2-.5.3-.7.4s-.6.1-1,.1c-.3,0-.8,0-1.5,0s-1.4,0-2.1-.1c0-.2,0-.4-.1-.6,0-.3-.2-.5-.3-.7.8,0,1.5.1,2.1.2.7,0,1.1,0,1.3,0s.5,0,.7,0c.2,0,.3,0,.4-.2.2-.3.5-.8.7-1.6s.4-2.1.6-3.8v-.2h0Z"/>
        <path class="st3" d="M36.5,95.8h1.5c0,1.8,0,3.5-.2,5.4-.2,1.9-.5,3.7-.9,5.5-.5,1.8-1.2,3.5-2.2,5,0-.1-.2-.2-.3-.4-.1-.1-.3-.3-.4-.4s-.3-.2-.4-.2c.9-1.4,1.5-3,2-4.7.4-1.7.7-3.5.9-5.3s.2-3.4.2-5h0ZM34.1,91.6h15v1.6h-15v-1.6ZM35.6,84.7h12.9v1.6h-12.9v-1.6ZM37.7,100.3c.5,1.8,1.2,3.4,2,4.5.8,1.2,1.8,2.1,2.9,2.7,1.2.7,2.5,1.1,4.1,1.4,1.6.3,3.5.4,5.6.4h3.7c1,0,2,0,3,0,1.1,0,2.1,0,3.1,0h4c-.1.1-.2.3-.3.5,0,.2-.2.4-.3.6s-.1.4-.2.6h-13c-2.4,0-4.5-.1-6.2-.4-1.8-.3-3.3-.8-4.5-1.5-1.2-.7-2.3-1.8-3.1-3.1s-1.6-3-2.1-5.1l1.3-.5h0ZM41.2,80.1h1.6v12.4h-1.6v-12.4ZM41.7,92.8h1.6v15.8h-1.6v-15.8ZM42.4,98.6h6.4v1.5h-6.4v-1.5ZM46.8,104c1.2-.6,2.7-1.4,4.4-2.4,1.8-1,3.5-1.9,5.3-2.9l.5,1.3c-1.6.9-3.3,1.9-5,2.8-1.7.9-3.2,1.8-4.5,2.5,0,0-.8-1.4-.8-1.4ZM50.1,86.5h15.9v1.5h-14.3v14.7h-1.6s0-16.3,0-16.3ZM63.7,90.7l1.4.4c-.7,2.4-1.6,4.7-2.7,6.9-1.1,2.1-2.4,4.1-3.9,5.7-1.5,1.7-3.1,3-4.8,4.1-.1-.2-.3-.4-.5-.6-.2-.2-.4-.4-.6-.6,1.7-.9,3.3-2.2,4.7-3.8,1.4-1.6,2.7-3.5,3.8-5.5,1.1-2.1,2-4.3,2.6-6.5h0ZM56.4,80.1h1.7c0,3.1,0,5.9.2,8.6s.4,5,.7,7.1c.3,2.1.7,3.8,1.1,5.3s1,2.6,1.6,3.4,1.2,1.2,1.9,1.2.7-.4.9-1.3c.2-.9.3-2.3.4-4.4.2.2.4.3.7.5.3.2.5.3.7.3,0,1.6-.2,2.9-.4,3.9-.2.9-.5,1.6-.9,2-.4.4-.9.6-1.5.6-1,0-1.9-.4-2.7-1.3s-1.4-2.1-2-3.7-1-3.5-1.3-5.8c-.3-2.2-.6-4.7-.8-7.5-.2-2.7-.3-5.6-.3-8.8h0ZM60.2,81.1l1.2-.7c.7.6,1.4,1.3,2.2,2.1.7.8,1.2,1.5,1.6,2.1l-1.3.8c-.3-.6-.9-1.3-1.6-2.2s-1.4-1.6-2.1-2.2Z"/>
        <path class="st3" d="M44.4,145.1h1.8c-.2,2-.4,3.9-.8,5.7-.4,1.7-1,3.3-1.7,4.7-.8,1.4-1.9,2.7-3.3,3.7-1.4,1.1-3.2,2-5.3,2.7,0-.1-.2-.3-.3-.4-.1-.2-.3-.4-.4-.5-.2-.2-.3-.3-.4-.4,2.1-.7,3.8-1.5,5.1-2.5s2.3-2.1,3.1-3.5c.7-1.3,1.2-2.8,1.6-4.4s.6-3.3.7-5.1h0ZM34.5,143.8h31v1.6h-31v-1.6ZM37.7,132.5l1.5-.6c.6.9,1.2,1.9,1.9,2.9.6,1.1,1.1,2.1,1.6,3.1.5,1,.8,1.9,1,2.7l-1.6.6c-.2-.8-.5-1.7-1-2.7s-1-2.1-1.6-3.1-1.2-2.1-1.9-3h0ZM49.1,130.1h1.7v14.4h-1.7v-14.4ZM53.5,144.9h1.7v14c0,.5.1.9.3,1.1.2.2.7.3,1.5.3h5.4c.5,0,.9-.1,1.2-.4.3-.3.4-.9.5-1.8s.2-2.2.2-3.9c.1,0,.3.2.5.3.2,0,.4.2.6.3.2,0,.4.1.6.2,0,1.8-.2,3.2-.4,4.3s-.5,1.7-1,2.1c-.5.4-1.1.6-2,.6h-5.6c-.9,0-1.5,0-2-.2-.5-.2-.9-.4-1-.9-.2-.4-.3-1-.3-1.8v-14h0ZM60.9,131.5l1.7.7c-.5,1-1,2.1-1.6,3.2-.6,1.1-1.1,2.2-1.7,3.2-.6,1-1.1,1.9-1.6,2.7l-1.4-.6c.5-.8,1.1-1.8,1.6-2.8s1.1-2.2,1.7-3.3c.5-1.1,1-2.2,1.3-3.1h0Z"/>
        <path class="st3" d="M34.7,199.9h30.7v1.6h-30.7v-1.6ZM35.6,186.1h29.2v7.4h-1.7v-5.8h-25.8v5.8h-1.6s0-7.4,0-7.4ZM38,181.3l1.4-.7c.7.8,1.4,1.6,2,2.6.7.9,1.1,1.8,1.4,2.4l-1.4.8c-.3-.7-.8-1.5-1.5-2.5-.7-.9-1.3-1.8-2-2.6h0ZM40.4,191.9h18.1v1.5h-18.1v-1.5ZM49.2,197.2h1.7v12.4c0,.6-.1,1.1-.3,1.4-.2.3-.6.5-1.1.6-.5.1-1.3.2-2.3.3-1,0-2.3,0-4,0,0-.2-.2-.5-.3-.8-.2-.3-.3-.6-.5-.8,1,0,1.9,0,2.7,0s1.5,0,2,0,1,0,1.2,0c.3,0,.6-.1.7-.2.1-.1.2-.3.2-.5v-12.4h0ZM47.1,180.6l1.4-.5c.6.9,1.2,1.8,1.8,2.9s.9,1.9,1.2,2.7l-1.5.6c-.2-.8-.6-1.7-1.1-2.8-.5-1.1-1.1-2-1.7-2.9h0ZM57.9,191.9h.8c0-.1,1.1.7,1.1.7-.8.8-1.7,1.5-2.7,2.3-1.1.7-2.2,1.4-3.3,2-1.1.6-2.3,1.1-3.4,1.6-.1-.2-.3-.3-.5-.5-.2-.2-.4-.4-.5-.5,1-.4,2.1-.9,3.2-1.5,1.1-.6,2.1-1.2,3-1.9.9-.7,1.7-1.3,2.3-1.9v-.4h0ZM61.1,180.4l1.7.7c-.7,1.1-1.5,2.1-2.4,3.2s-1.7,2-2.4,2.8l-1.3-.7c.5-.5,1-1.2,1.6-1.9.5-.7,1.1-1.4,1.6-2.1.5-.7.9-1.4,1.3-2h0Z"/>
      </g>
      <rect class="st6" x="308" y="55" width="40" height="1"/>
      <g class="st7">
        <path class="st1" d="M369.7,52.6v2.5c0,.2,0,.4,0,.6s0,.4,0,.6c0,.2,0,.4,0,.6,0,.2,0,.4,0,.6v2.8h-.7v-7.6h.7ZM370.9,56v.6h-1.5v-.6h1.5ZM373.9,52.6l-2.3,3.2c0,0-.1.2-.2.2,0,0-.1.1-.2.2h0c0,0,.1.2.2.2s.1.1.2.2l2.5,3.5h-.8l-2.8-4,2.6-3.6h.8Z"/>
        <path class="st1" d="M388.1,52.6v7.6h-.7v-7.6h.7Z"/>
        <path class="st1" d="M404.7,52.5c.6,0,1,0,1.4.2.3.1.6.3.8.7s.2.8.2,1.3,0,.8-.1,1.1c0,.3-.2.5-.5.6-.2.1-.5.2-.8.3h0c.1,0,.2.1.4.2s.2.2.3.4c0,.1.2.3.2.5l.8,2.4h-.8l-.7-2.4c-.1-.3-.2-.5-.4-.7-.2-.1-.4-.2-.7-.2-.4,0-.8,0-1.1,0-.3,0-.6,0-.8,0-.2,0-.4,0-.5,0v-.6h2.4c.4,0,.7,0,1-.1.2,0,.4-.3.5-.5.1-.2.2-.6.2-1s0-.7-.2-1c-.1-.2-.3-.4-.5-.5s-.6-.1-1-.1c-.6,0-1.1,0-1.5,0-.4,0-.7,0-.9,0l-.2-.6c.3,0,.5,0,.8,0,.2,0,.5,0,.8,0,.3,0,.6,0,1,0h0ZM402.9,52.6v7.6h-.7v-7.6h.7Z"/>
        <path class="st1" d="M423.5,52.5c.5,0,1,0,1.4.2s.7.4.9.7c.2.3.4.7.5,1.2.1.5.2,1.1.2,1.9s0,1.4-.2,1.9-.3.9-.5,1.2c-.2.3-.5.5-.9.7s-.8.2-1.4.2-1,0-1.4-.2-.7-.4-.9-.7c-.2-.3-.4-.7-.5-1.2-.1-.5-.2-1.1-.2-1.9s0-1.4.2-1.9c.1-.5.3-.9.5-1.2.2-.3.5-.5.9-.7s.8-.2,1.4-.2ZM423.5,53.1c-.5,0-1,.1-1.3.3-.3.2-.5.6-.7,1-.1.5-.2,1.1-.2,1.9s0,1.5.2,1.9c.1.5.4.8.7,1,.3.2.8.3,1.3.3s1-.1,1.3-.3.5-.6.7-1c.1-.5.2-1.1.2-1.9s0-1.5-.2-1.9c-.1-.5-.4-.8-.7-1s-.7-.3-1.3-.3Z"/>
        <path class="st1" d="M442.2,52.5c.4,0,.7,0,1.1,0,.4,0,.7,0,1.1.1v.5c-.4,0-.7,0-1.1,0s-.7,0-1.1,0-.6,0-.8,0c-.2,0-.4,0-.5.2-.1,0-.2.2-.3.4,0,.2,0,.4,0,.8,0,.5,0,.8.2,1,.2.2.4.3.8.4l1.6.3c.6.1,1,.3,1.2.7.2.3.3.8.3,1.4s0,.8-.2,1.1-.3.5-.5.6-.5.2-.8.3c-.3,0-.7,0-1.1,0s-.6,0-1,0-.8,0-1.3-.2v-.5c.4,0,.7,0,1,0,.3,0,.5,0,.7,0,.2,0,.4,0,.6,0,.4,0,.8,0,1-.1.2,0,.4-.2.5-.4.1-.2.2-.5.2-.9s0-.6-.1-.8c0-.2-.2-.3-.3-.4s-.4-.2-.6-.2l-1.6-.3c-.5-.1-.9-.3-1.1-.7-.2-.3-.3-.8-.3-1.4s0-.8.1-1.1c0-.3.2-.5.4-.6s.4-.2.7-.3c.3,0,.7,0,1.1,0h0Z"/>
        <path class="st1" d="M459,52.6v7.6h-.7v-7.6h.7ZM463,55.8v.6h-4v-.6h4ZM463.6,52.6v7.6h-.7v-7.6h.7Z"/>
        <path class="st1" d="M478.3,52.6v7.6h-.7v-7.6h.7Z"/>
        <path class="st1" d="M509.5,52.5c.5,0,1,0,1.4.2s.7.4.9.7c.2.3.4.7.5,1.2.1.5.2,1.1.2,1.9s0,1.4-.2,1.9c-.1.5-.3.9-.5,1.2-.2.3-.5.5-.9.7s-.8.2-1.4.2-1,0-1.4-.2-.7-.4-.9-.7c-.2-.3-.4-.7-.5-1.2-.1-.5-.2-1.1-.2-1.9s0-1.4.2-1.9c.1-.5.3-.9.5-1.2.2-.3.5-.5.9-.7s.8-.2,1.4-.2ZM509.5,53.1c-.5,0-1,.1-1.3.3-.3.2-.5.6-.7,1-.1.5-.2,1.1-.2,1.9s0,1.5.2,1.9c.1.5.4.8.7,1,.3.2.8.3,1.3.3s1-.1,1.3-.3.5-.6.7-1c.1-.5.2-1.1.2-1.9s0-1.5-.2-1.9c-.1-.5-.4-.8-.7-1s-.7-.3-1.3-.3Z"/>
        <path class="st1" d="M528.7,52.5c.6,0,1,0,1.4.2.3.1.6.4.7.7.2.3.2.8.2,1.4s0,1.1-.2,1.4c-.1.3-.4.6-.7.7s-.8.2-1.3.2-.6,0-.9,0c-.3,0-.5,0-.7,0-.2,0-.4,0-.6,0-.2,0-.3,0-.3,0v-.5h2.4c.4,0,.7,0,1-.2s.4-.3.5-.5c.1-.2.2-.6.2-1s0-.8-.2-1c-.1-.2-.3-.4-.5-.5s-.6-.1-1-.1c-.6,0-1.1,0-1.5,0-.4,0-.7,0-.9,0l-.2-.6c.3,0,.5,0,.8,0,.2,0,.5,0,.8,0,.3,0,.6,0,1,0h0ZM526.9,52.6v7.6h-.7v-7.6h.7Z"/>
        <path class="st1" d="M549.6,52.6v.6h-5.8v-.6h5.8ZM547.1,52.6v7.6h-.7v-7.6h.7Z"/>
        <path class="st1" d="M563.6,52.6v7.6h-.7v-7.6h.7Z"/>
        <path class="st1" d="M580.3,52.5c.3,0,.6,0,.8,0s.4,0,.6,0c.2,0,.4,0,.6.1v.5c-.3,0-.5,0-.7,0s-.4,0-.6,0-.5,0-.7,0c-.5,0-1,.1-1.3.3s-.5.6-.7,1c-.1.5-.2,1.1-.2,1.9s0,1.5.2,1.9c.1.5.4.8.7,1s.7.3,1.3.3.8,0,1.2,0,.6,0,.9,0v.5c-.2,0-.5.1-.9.2-.3,0-.7,0-1.2,0-.7,0-1.3-.1-1.7-.4-.4-.3-.7-.7-.9-1.2-.2-.6-.3-1.3-.3-2.3s0-1.7.3-2.3c.2-.6.5-1,.9-1.2s1-.4,1.7-.4h0Z"/>
        <path class="st1" d="M597.9,52.5c.4,0,.7,0,1.1,0,.4,0,.7,0,1.1.1v.5c-.4,0-.7,0-1.1,0s-.7,0-1.1,0-.6,0-.8,0c-.2,0-.4,0-.5.2-.1,0-.2.2-.3.4,0,.2,0,.4,0,.8,0,.5,0,.8.2,1,.2.2.4.3.8.4l1.6.3c.6.1,1,.3,1.2.7.2.3.3.8.3,1.4s0,.8-.2,1.1c-.1.3-.3.5-.5.6s-.5.2-.8.3c-.3,0-.7,0-1.1,0s-.6,0-1,0-.8,0-1.3-.2v-.5c.4,0,.7,0,1,0,.3,0,.5,0,.7,0,.2,0,.4,0,.6,0,.4,0,.8,0,1-.1.2,0,.4-.2.5-.4.1-.2.2-.5.2-.9s0-.6-.1-.8c0-.2-.2-.3-.3-.4s-.4-.2-.6-.2l-1.6-.3c-.5-.1-.9-.3-1.1-.7-.2-.3-.3-.8-.3-1.4s0-.8.1-1.1c0-.3.2-.5.4-.6.2-.1.4-.2.7-.3.3,0,.7,0,1.1,0h0Z"/>
      </g>
      <g>
        <path class="st4" d="M1644.7,61.7l1.2-1.7c1.6.5,3.2,1.1,4.9,1.8,1.7.7,3.3,1.5,4.7,2.3,1.5.8,2.7,1.5,3.6,2.3l-1.1,2c-1-.8-2.2-1.6-3.7-2.4-1.5-.8-3.1-1.6-4.7-2.4-1.7-.8-3.3-1.4-4.9-1.9h0ZM1646.7,101.8c1.2-1.8,2.5-4,3.9-6.6,1.4-2.5,2.8-5.2,4.3-8s2.7-5.5,3.9-8l1.7,1.3c-1.1,2.4-2.4,5-3.7,7.7-1.4,2.7-2.8,5.4-4.2,8-1.4,2.6-2.7,5-4,7l-1.8-1.4h0ZM1648.3,41.9l1.3-1.5c1.5.7,3.1,1.6,4.8,2.6,1.6,1,3.2,2,4.6,3,1.4,1,2.6,1.9,3.4,2.8l-1.3,1.8c-.9-.9-2.1-1.9-3.5-3-1.4-1.1-2.9-2.1-4.5-3.1-1.6-1-3.2-1.9-4.8-2.6ZM1683,76.2l1.9.8c-1.7,3.2-3.8,6.3-6.3,9.3-2.5,3-5.2,5.7-8.2,8.2s-5.8,4.4-8.6,5.9c-.2-.2-.4-.5-.7-.9s-.6-.6-.8-.8c2.9-1.4,5.8-3.3,8.6-5.6,2.9-2.3,5.6-5,8-7.9,2.5-2.9,4.5-6,6.1-9.1h0ZM1663.3,75.7h45.8v2.1h-45.8v-2.1ZM1679.7,44.8h2.2c-.2,3.4-.6,6.3-1.1,8.8-.6,2.5-1.4,4.7-2.6,6.5-1.2,1.8-2.8,3.4-4.8,4.7-2,1.3-4.5,2.4-7.5,3.2,0-.2-.3-.5-.6-.9s-.5-.6-.7-.8c2.9-.8,5.3-1.8,7.2-3,1.9-1.2,3.4-2.6,4.5-4.2,1.1-1.7,1.9-3.7,2.4-6,.5-2.4.9-5.1,1-8.2h0ZM1665.3,42.9h42.8v11.5h-2.1v-9.4h-38.5v10h-2.2v-12.1h0ZM1684.5,66.6h2.1v37.8h-2.1v-37.8ZM1688.2,76.2c1.5,2.9,3.4,5.7,5.7,8.6,2.3,2.9,4.9,5.4,7.6,7.7,2.8,2.3,5.5,4.1,8.2,5.3-.2.1-.4.3-.6.5-.2.2-.4.4-.5.6-.2.2-.3.4-.5.6-2.7-1.4-5.4-3.3-8.1-5.7-2.7-2.4-5.3-5.1-7.7-8-2.4-2.9-4.3-5.9-5.9-8.9,0,0,1.7-.7,1.7-.7ZM1691.8,44.7h2.1v17c0,.7.2,1.1.5,1.3.3.2,1.1.3,2.3.3h8.5c.9,0,1.5-.3,1.8-1,.3-.6.4-2.2.5-4.7.3.2.6.3,1,.5.4.1.7.2,1.1.3,0,1.8-.3,3.2-.5,4.2-.2,1-.6,1.7-1.2,2.1-.6.4-1.3.5-2.3.5h-8.8c-1.2,0-2.2,0-2.9-.3-.7-.2-1.2-.5-1.5-1s-.4-1.3-.4-2.3v-17h0Z"/>
        <path class="st4" d="M1740.7,43.2h2.2v20.7c0,2.9,0,6.1-.3,9.5-.2,3.4-.6,6.9-1.1,10.5s-1.4,7.1-2.4,10.5c-1.1,3.4-2.5,6.6-4.4,9.5-.1-.1-.3-.3-.5-.4l-.6-.4c-.2-.1-.4-.3-.6-.4,1.8-2.9,3.2-6,4.2-9.3,1.1-3.3,1.8-6.6,2.3-10.1.5-3.4.8-6.8,1-10.1.2-3.3.3-6.4.3-9.3v-20.7h0ZM1741.7,43.2h51v12.4h-51v-2.1h49v-8.2h-49s0-2.1,0-2.1ZM1747.9,61.6h44.6v18.3h-44.6s0-18.3,0-18.3ZM1750.1,63.7v5.9h40.4v-5.9h-40.4ZM1750.1,71.7v6h40.4v-6h-40.4ZM1751.5,84.1h38v20h-2.1v-17.9h-33.8v18.1h-2.1s0-20.2,0-20.2ZM1752.4,91.7h35.9v2.1h-35.9v-2.1ZM1752.4,99.6h35.9v2.1h-35.9v-2.1ZM1754.6,56.6l1.7-.9c1.1.9,2.1,2,3.1,3.2,1,1.2,1.7,2.3,2.1,3.2l-1.7,1.1c-.4-1-1.1-2.1-2.1-3.3-.9-1.2-2-2.3-3.1-3.2ZM1768.9,62.3h2.2v16.6h-2.2v-16.6ZM1782.3,55.5l1.9,1.1c-.9,1.2-1.9,2.4-2.9,3.6-1,1.2-2,2.2-2.9,3l-1.6-.9c.9-.9,1.8-2,2.9-3.3,1.1-1.3,1.9-2.5,2.5-3.4Z"/>
        <path class="st4" d="M1658.6,168.8l2.4.3c-.4,3.9-1.2,7.9-2.3,12-1.1,4.1-2.7,7.9-4.7,11.5-2,3.6-4.6,6.6-7.8,9,0-.1-.2-.3-.4-.5s-.4-.3-.6-.5c-.2-.2-.4-.3-.6-.4,3.2-2.4,5.7-5.3,7.7-8.8,1.9-3.5,3.4-7.2,4.4-11.1,1-3.9,1.7-7.7,2-11.4h0ZM1646.2,161h61.6v2.1h-61.6v-2.1ZM1652.4,146h50.5v2.1h-50.5v-2.1ZM1658.6,177.9c1.4,4.3,3.3,7.7,5.5,10.4s4.8,4.7,7.8,6.2c3,1.4,6.3,2.4,9.9,3,3.6.5,7.5.8,11.7.8h16.4c-.1.2-.3.4-.4.7-.1.3-.3.6-.4.8,0,.3-.2.5-.2.7h-15.4c-4.5,0-8.6-.3-12.4-.9-3.8-.6-7.2-1.6-10.3-3.2-3.1-1.5-5.8-3.7-8.1-6.5-2.3-2.8-4.3-6.5-5.8-11l1.7-1h0ZM1675.9,136.6h2.2v25.1h-2.2v-25.1ZM1676,161.3h2.2v36.1l-2.2-.5v-35.6ZM1677.1,177h26.1v2.2h-26.1v-2.2Z"/>
        <path class="st4" d="M1762.5,147.2l1.8.9c-1.7,2.2-3.7,4.4-6,6.6s-4.8,4.2-7.5,6.1c-2.7,1.9-5.4,3.6-8.1,5.1-2.7,1.5-5.3,2.8-7.9,3.8-.2-.2-.4-.5-.7-.9s-.6-.6-.8-.8c2.5-1,5.2-2.2,7.9-3.6,2.7-1.5,5.4-3.1,8.1-5,2.6-1.8,5.1-3.8,7.3-5.9,2.3-2.1,4.2-4.2,5.8-6.3h0ZM1734.4,146.7h63.2v2.1h-63.2v-2.1ZM1734.4,197.4h63.2v2.1h-63.2v-2.1ZM1746.7,168.6h38.6v29.8h-2.2v-27.7h-34.3v28h-2.2v-30.1h0ZM1747.8,178.1h36.6v2.1h-36.6v-2.1ZM1747.8,187.7h36.6v2.2h-36.6v-2.2ZM1764.7,136.4h2.2v29.5h-2.2v-29.5ZM1769.2,147.4c1.6,2.1,3.5,4.1,5.8,6.1,2.3,2,4.7,3.9,7.4,5.6,2.6,1.8,5.4,3.3,8.1,4.8,2.8,1.4,5.5,2.6,8.1,3.4-.2.1-.4.3-.6.5-.2.2-.4.4-.5.6-.2.2-.3.4-.5.7-2.6-1-5.3-2.2-8-3.7-2.8-1.5-5.5-3.2-8.1-5-2.7-1.8-5.2-3.8-7.5-5.9-2.3-2.1-4.3-4.2-6-6.3l1.8-.9h0Z"/>
      </g>
    </g>
  </g>
</svg>